<svg width="207" height="47" viewBox="0 0 207 47" fill="none" xmlns="http://www.w3.org/2000/svg">
<path d="M22 19C22.5523 19 23 18.5522 23 18C23 17.4477 22.5523 17 22 17C21.4477 17 21 17.4477 21 18C21 18.5522 21.4477 19 22 19Z" fill="white"/>
<path fill-rule="evenodd" clip-rule="evenodd" d="M23 18C23 17.4477 22.5523 17 22 17C21.4477 17 21 17.4477 21 18C21 18.5523 21.4477 19 22 19C22.5523 19 23 18.5523 23 18ZM22.9187 18C22.9187 18.2538 22.8159 18.4832 22.6496 18.6496C22.4833 18.8159 22.2538 18.9186 22 18.9187C21.7462 18.9186 21.5168 18.8159 21.3504 18.6496C21.1841 18.4832 21.0814 18.2538 21.0813 18C21.0814 17.7462 21.1841 17.5168 21.3504 17.3504C21.5168 17.1841 21.7462 17.0813 22 17.0813C22.2538 17.0813 22.4833 17.1841 22.6496 17.3504C22.8159 17.5168 22.9187 17.7462 22.9187 18Z" fill="white"/>
<path fill-rule="evenodd" clip-rule="evenodd" d="M17.5486 2.90023C18.5201 1.11139 20.376 0 22.3918 0C24.4484 0 26.3349 1.15634 27.2887 3.00158L42.7971 33.0024C45.5125 38.2555 43.3861 44.2881 38.868 47C37.8125 45.5078 36.1037 44.5382 34.1746 44.5382C33.3338 44.5382 32.5356 44.7239 31.8141 45.0553C31.4421 43.5152 30.0951 42.3725 28.4856 42.3725L28.4818 42.3728C28.4796 42.3087 28.4752 42.2454 28.4676 42.1831C28.4789 42.0944 28.4856 42.0041 28.4856 41.9123C28.4856 40.7328 27.5578 39.7767 26.4135 39.7767C26.1516 39.7767 25.9023 39.8289 25.6716 39.9202C25.5536 39.1045 24.9904 38.4387 24.243 38.1984L23.2304 35.4442H23.2276L22.3782 31.0672H22.0141L21.6198 35.4442H21.5894L20.5948 38.1493C20.4667 38.1189 20.3339 38.1016 20.1969 38.1016C19.2145 38.1016 18.4181 38.9223 18.4181 39.9347C18.4181 40.0258 18.427 40.1143 18.4398 40.2015L18.4367 40.2213L18.4351 40.2318C18.4335 40.2415 18.4321 40.2512 18.4309 40.2611C18.1445 40.1517 17.836 40.0889 17.5126 40.0889C16.0517 40.0889 14.8674 41.3076 14.8638 42.8123C14.7725 42.7967 14.6795 42.7867 14.5839 42.7867C13.8998 42.7867 13.3117 43.2042 13.0421 43.8046C12.1262 43.1823 11.0301 42.8191 9.85097 42.8191C7.41248 42.8191 5.32501 44.3684 4.46488 46.564C0.352721 43.638 -1.4179 37.8251 1.30496 32.8112L17.5486 2.90023ZM21.6574 25.9757H20.795C20.795 25.9757 19.989 26.831 20.1 28.0895C20.1 28.0895 20.3278 27.8284 20.5089 27.6929C20.5418 27.6681 20.5872 27.6964 20.5809 27.7374C20.5373 28.0217 20.5747 28.8745 22.024 30.3234C23.4732 28.8745 23.5105 28.0217 23.467 27.7374C23.4607 27.6964 23.5061 27.6681 23.539 27.6929C23.72 27.8284 23.948 28.0895 23.948 28.0895C24.0589 26.831 23.2529 25.9757 23.2529 25.9757H22.3907C22.4061 25.9126 22.4211 25.8471 22.4358 25.7794H23.1938C23.3841 25.7794 23.5586 25.672 23.6462 25.5008L23.7808 25.2378C23.9165 25.1804 24.031 25.0761 24.1011 24.9392L24.2224 24.7022C24.4032 24.6651 24.5495 24.5221 24.5873 24.3333C24.6978 23.781 24.8894 22.6624 24.9668 21.231C25.0813 19.1145 24.9463 16.3141 23.9302 13.6496L23.8791 13.5165C23.4335 12.3829 22.826 11.2765 22.0075 10.2607L22.0069 10.2652L22.0063 10.2607C21.1961 11.266 20.5933 12.3601 20.1489 13.4814L20.0834 13.6498C18.526 17.7338 19.0386 22.1372 19.3472 23.9077C19.3761 24.0734 19.4031 24.2161 19.4266 24.3333C19.4647 24.5231 19.6121 24.6665 19.7941 24.7028L19.9151 24.9392C19.9852 25.0762 20.0998 25.1805 20.2356 25.2379L20.3701 25.5008C20.4577 25.672 20.6323 25.7794 20.8226 25.7794H21.6123C21.6268 25.8471 21.642 25.9126 21.6574 25.9757ZM28.0792 26.2745C28.2538 23.4812 26.3491 21.9977 25.2388 21.3753C25.1749 22.4363 25.0501 23.3153 24.9475 23.9042C26.5014 24.6464 28.0792 26.2745 28.0792 26.2745ZM15.8985 26.4165C15.7256 23.6509 17.5913 22.1691 18.7058 21.536C18.7706 22.5978 18.8962 23.4759 18.9986 24.0615C19.0104 24.0557 19.0222 24.0501 19.034 24.0445C17.479 24.7857 15.8985 26.4165 15.8985 26.4165Z" fill="white"/>
<path d="M75.0759 21.8833H62.1988L59.5552 30.6883H55.5044L63.0516 5.82688C63.5065 4.33059 63.9755 3.16523 64.4587 2.33076C64.942 1.49629 65.5105 0.906404 66.1643 0.561109C66.8181 0.187036 67.6283 0 68.5948 0C70.0161 0 71.139 0.43162 71.9633 1.29486C72.7877 2.12934 73.5269 3.64 74.1806 5.82688L81.7705 30.6883H77.6771L75.0759 21.8833ZM74.1379 18.7324L70.3004 5.87004C70.073 5.09313 69.8313 4.56079 69.5755 4.27305C69.3197 3.95653 68.9928 3.79826 68.5948 3.79826C68.2252 3.79826 67.9126 3.95653 67.6567 4.27305C67.4293 4.56079 67.2019 5.09313 66.9745 5.87004L63.1369 18.7324H74.1379Z" fill="white"/>
<path d="M96.131 31.163C92.2082 31.163 89.2091 30.2278 87.134 28.3575C85.0588 26.4872 84.0214 23.7536 84.0214 20.1567V10.9632C84.0214 7.33755 85.0447 4.60396 87.0913 2.76237C89.1665 0.920791 92.2082 0 96.2162 0C98.7747 0 100.949 0.388458 102.74 1.16538C104.531 1.94229 106.009 3.12206 107.175 4.70467L104.19 6.99226C103.223 5.72617 102.1 4.79099 100.821 4.18673C99.5706 3.55368 98.0214 3.23716 96.1737 3.23716C90.7726 3.23716 88.0721 5.8125 88.0721 10.9632V20.1567C88.0721 25.3362 90.7726 27.9258 96.1737 27.9258C98.533 27.9258 100.381 27.4798 101.717 26.5879C103.081 25.6959 103.763 24.4586 103.763 22.8759V20.5884C103.763 19.4374 103.465 18.5597 102.868 17.9554C102.3 17.3512 101.447 17.0491 100.31 17.0491H95.2782V13.8119H101.333C103.493 13.8119 105.099 14.3298 106.151 15.3657C107.203 16.4016 107.729 17.9841 107.729 20.1136V23.1349C107.729 25.6096 106.677 27.5662 104.574 29.005C102.498 30.4437 99.6843 31.163 96.131 31.163Z" fill="white"/>
<path d="M113.782 0.474785H117.833V30.6883H113.782V0.474785Z" fill="white"/>
<path d="M134.391 30.6883C131.008 30.6883 128.521 29.9257 126.929 28.4006C125.366 26.8757 124.584 24.588 124.584 21.5379V0.474785H128.635V21.5379C128.635 23.5521 129.104 25.0485 130.042 26.0268C130.98 26.9763 132.43 27.4511 134.391 27.4511H143.985V30.6883H134.391Z" fill="white"/>
<path d="M149.218 0.474785H153.269V30.6883H149.218V0.474785Z" fill="white"/>
<path d="M167.738 3.71195H158.314V0.474785H181.254V3.71195H171.788V30.6883H167.738V3.71195Z" fill="white"/>
<path d="M192.758 17.9554L182.695 0.474785H187.173L194.89 14.1572L202.48 0.474785H207L196.809 17.9554V30.6883H192.758V17.9554Z" fill="white"/>
<path d="M57.7249 47C56.8358 47 56.1578 46.7905 55.6908 46.3715C55.2303 45.9524 55 45.34 55 44.534V42.4744C55 41.6813 55.2239 41.0754 55.6716 40.6564C56.1258 40.2308 56.7782 40.0181 57.629 40.0181C58.1855 40.0181 58.662 40.1084 59.0586 40.2889C59.4552 40.4629 59.7814 40.7369 60.0373 41.1109L59.5479 41.4686C59.3241 41.1657 59.0586 40.9433 58.7516 40.8015C58.4509 40.6531 58.0863 40.5791 57.6578 40.5791C57.0181 40.5791 56.5288 40.7401 56.1898 41.0625C55.8571 41.3849 55.6908 41.8554 55.6908 42.4744V44.534C55.6908 45.1595 55.8603 45.6333 56.1994 45.9556C56.5448 46.278 57.0501 46.4391 57.7153 46.4391C58.1567 46.4391 58.5309 46.365 58.8379 46.2167C59.145 46.0685 59.4104 45.8364 59.6343 45.5205L60.1236 45.8975C59.8358 46.2844 59.5032 46.5649 59.1258 46.7389C58.7484 46.913 58.2814 47 57.7249 47Z" fill="white"/>
<path d="M67.1647 46.8936H66.4259L65.9653 45.153C65.8757 44.8177 65.7734 44.5567 65.6583 44.3697C65.5431 44.1827 65.3832 44.0473 65.1785 43.9636C64.9802 43.8733 64.7084 43.8282 64.363 43.8282H62.8086V46.8936H62.1178V40.1245H64.9962C65.6231 40.1245 66.0996 40.2824 66.4259 40.5983C66.7585 40.9142 66.9248 41.359 66.9248 41.9329C66.9248 42.4163 66.8096 42.8032 66.5794 43.0932C66.3555 43.3769 66.0357 43.5542 65.6199 43.625C65.9013 43.7282 66.1188 43.899 66.2723 44.1376C66.4322 44.3762 66.573 44.7145 66.6945 45.153L67.1647 46.8936ZM64.9195 43.2672C65.3352 43.2672 65.6583 43.1545 65.8885 42.9289C66.1188 42.7032 66.234 42.3874 66.234 41.9812C66.234 41.5686 66.1188 41.2495 65.8885 41.0238C65.6583 40.7982 65.3352 40.6853 64.9195 40.6853H62.8086V43.2672H64.9195Z" fill="white"/>
<path d="M71.1567 46.8936C70.4083 46.8936 69.8518 46.7292 69.4872 46.4004C69.129 46.0653 68.9499 45.5559 68.9499 44.8726V42.1455C68.9499 41.4622 69.129 40.9561 69.4872 40.6274C69.8518 40.2921 70.4083 40.1245 71.1567 40.1245H73.469V40.6853H71.1567C70.6386 40.6853 70.2548 40.8047 70.0053 41.0431C69.7623 41.2817 69.6407 41.6492 69.6407 42.1455V43.2286H72.9797V43.7895H69.6407V44.8726C69.6407 45.369 69.7623 45.7364 70.0053 45.975C70.2548 46.2134 70.6386 46.3328 71.1567 46.3328H73.5267V46.8936H71.1567Z" fill="white"/>
<path d="M79.3984 44.7178H76.3663L75.7043 46.8936H75.0134L76.7501 41.2365C76.8909 40.7788 77.0412 40.4629 77.2011 40.2889C77.3674 40.1084 77.5944 40.0181 77.8822 40.0181C78.1701 40.0181 78.3972 40.1084 78.5635 40.2889C78.7298 40.4629 78.8833 40.7788 79.0241 41.2365L80.7608 46.8936H80.0603L79.3984 44.7178ZM79.2351 44.1763L78.3428 41.2462C78.2725 41.0271 78.2054 40.8755 78.1413 40.7917C78.0774 40.708 77.991 40.6661 77.8822 40.6661C77.78 40.6661 77.6968 40.708 77.6329 40.7917C77.5688 40.8755 77.5017 41.0271 77.4313 41.2462L76.5389 44.1763H79.2351Z" fill="white"/>
<path d="M83.328 40.6853H81.1501V40.1245H86.1968V40.6853H84.0189V46.8936H83.328V40.6853Z" fill="white"/>
<path d="M88.1632 40.1245H88.854V46.8936H88.1632V40.1245Z" fill="white"/>
<path d="M93.6008 47C93.3257 47 93.1019 46.9065 92.9292 46.7195C92.7628 46.5326 92.6156 46.2199 92.4878 45.7816L90.8184 40.1245H91.5091L93.169 45.7719C93.2267 45.9783 93.2874 46.1264 93.3512 46.2167C93.4217 46.3069 93.5048 46.352 93.6008 46.352C93.6904 46.352 93.7671 46.3102 93.8311 46.2264C93.895 46.1361 93.9589 45.9846 94.023 45.7719L95.6829 40.1245H96.3833L94.7137 45.7816C94.5859 46.2134 94.4356 46.5261 94.2627 46.7195C94.0901 46.9065 93.8695 47 93.6008 47Z" fill="white"/>
<path d="M100.059 46.8936C99.3109 46.8936 98.7543 46.7292 98.3898 46.4004C98.0315 46.0653 97.8524 45.5559 97.8524 44.8726V42.1455C97.8524 41.4622 98.0315 40.9561 98.3898 40.6274C98.7543 40.2921 99.3109 40.1245 100.059 40.1245H102.372V40.6853H100.059C99.541 40.6853 99.1573 40.8047 98.9078 41.0431C98.6647 41.2817 98.5433 41.6492 98.5433 42.1455V43.2286H101.882V43.7895H98.5433V44.8726C98.5433 45.369 98.6647 45.7364 98.9078 45.975C99.1573 46.2134 99.541 46.3328 100.059 46.3328H102.429V46.8936H100.059Z" fill="white"/>
<path d="M107.687 40.1245H110.076C110.78 40.1245 111.336 40.234 111.746 40.4532C112.162 40.6725 112.462 41.0271 112.648 41.517C112.833 42.0069 112.926 42.6709 112.926 43.5091C112.926 44.3535 112.833 45.0209 112.648 45.5108C112.469 45.9943 112.171 46.3456 111.755 46.5649C111.346 46.7841 110.786 46.8936 110.076 46.8936H107.687V40.1245ZM110.076 46.3328C110.607 46.3328 111.029 46.2426 111.343 46.062C111.656 45.8751 111.883 45.5784 112.024 45.1723C112.165 44.7597 112.235 44.2086 112.235 43.5188C112.235 42.8289 112.162 42.2777 112.014 41.8651C111.874 41.4525 111.647 41.1528 111.333 40.9658C111.02 40.7788 110.601 40.6853 110.076 40.6853H108.378V46.3328H110.076Z" fill="white"/>
<path d="M115.182 40.1245H115.873V46.8936H115.182V40.1245Z" fill="white"/>
<path d="M120.86 47C119.984 47 119.315 46.7905 118.854 46.3715C118.4 45.9459 118.173 45.3335 118.173 44.534V42.4744C118.173 41.6686 118.4 41.0593 118.854 40.6467C119.315 40.2276 119.99 40.0181 120.879 40.0181C121.947 40.0181 122.747 40.3372 123.278 40.9755L122.779 41.3816C122.331 40.8466 121.695 40.5791 120.869 40.5791C120.204 40.5791 119.702 40.7401 119.363 41.0625C119.03 41.3784 118.864 41.8491 118.864 42.4744V44.534C118.864 45.1658 119.034 45.643 119.373 45.9653C119.712 46.2812 120.211 46.4391 120.869 46.4391C121.445 46.4391 121.903 46.3263 122.241 46.1007C122.58 45.8751 122.75 45.5721 122.75 45.1917V44.5729C122.75 44.2827 122.673 44.0635 122.52 43.9152C122.366 43.7604 122.145 43.6831 121.858 43.6831H120.706V43.1223H122.002C122.948 43.1223 123.422 43.5831 123.422 44.5051V45.2303C123.422 45.5914 123.316 45.904 123.105 46.1683C122.9 46.4328 122.603 46.639 122.213 46.7873C121.829 46.9292 121.378 47 120.86 47Z" fill="white"/>
<path d="M125.61 40.1245H126.3V46.8936H125.61V40.1245Z" fill="white"/>
<path d="M130.443 40.6853H128.265V40.1245H133.312V40.6853H131.134V46.8936H130.443V40.6853Z" fill="white"/>
<path d="M138.083 44.7178H135.051L134.389 46.8936H133.699L135.435 41.2365C135.576 40.7788 135.726 40.4629 135.886 40.2889C136.052 40.1084 136.279 40.0181 136.567 40.0181C136.855 40.0181 137.082 40.1084 137.249 40.2889C137.415 40.4629 137.568 40.7788 137.709 41.2365L139.446 46.8936H138.745L138.083 44.7178ZM137.92 44.1763L137.028 41.2462C136.958 41.0271 136.89 40.8755 136.826 40.7917C136.762 40.708 136.676 40.6661 136.567 40.6661C136.465 40.6661 136.382 40.708 136.318 40.7917C136.254 40.8755 136.187 41.0271 136.116 41.2462L135.224 44.1763H137.92Z" fill="white"/>
<path d="M143.156 46.8936C142.42 46.8936 141.873 46.7292 141.515 46.4004C141.163 46.0653 140.987 45.5559 140.987 44.8726V40.1245H141.678V44.8726C141.678 45.369 141.796 45.7364 142.033 45.975C142.276 46.2134 142.65 46.3328 143.156 46.3328H145.314V46.8936H143.156Z" fill="white"/>
<path d="M152.498 47C151.91 47 151.424 46.913 151.04 46.7389C150.662 46.5584 150.314 46.2553 149.994 45.8299L150.464 45.4141C150.739 45.788 151.024 46.0523 151.318 46.2071C151.619 46.3618 151.999 46.4391 152.46 46.4391C153.061 46.4391 153.525 46.3231 153.851 46.091C154.184 45.8589 154.35 45.5333 154.35 45.1144C154.35 44.8499 154.289 44.6405 154.168 44.4857C154.046 44.331 153.832 44.1989 153.525 44.0892C153.218 43.9733 152.764 43.8539 152.162 43.7315C151.504 43.6025 151.014 43.3899 150.694 43.0932C150.381 42.7967 150.224 42.4001 150.224 41.9037C150.224 41.3171 150.432 40.8563 150.848 40.521C151.27 40.1857 151.849 40.0181 152.585 40.0181C153.109 40.0181 153.563 40.1116 153.947 40.2986C154.331 40.4791 154.628 40.7466 154.839 41.1012L154.369 41.4881C154.171 41.1914 153.918 40.9658 153.611 40.8112C153.311 40.6564 152.962 40.5791 152.565 40.5791C152.06 40.5791 151.657 40.695 151.356 40.9271C151.062 41.1592 150.915 41.4719 150.915 41.8651C150.915 42.2133 151.046 42.4904 151.308 42.6968C151.571 42.8967 152.002 43.0578 152.604 43.1802C153.237 43.3091 153.726 43.4542 154.072 43.6155C154.423 43.7766 154.673 43.9733 154.82 44.2054C154.967 44.431 155.041 44.7275 155.041 45.095C155.041 45.7138 154.823 46.1877 154.388 46.5165C153.953 46.8389 153.323 47 152.498 47Z" fill="white"/>
<path d="M159.43 47C158.579 47 157.926 46.7905 157.472 46.3715C157.018 45.9459 156.791 45.3335 156.791 44.534V42.4841C156.791 41.6846 157.018 41.0754 157.472 40.6564C157.926 40.2308 158.579 40.0181 159.43 40.0181C160.28 40.0181 160.933 40.2308 161.387 40.6564C161.841 41.0754 162.068 41.6846 162.068 42.4841V44.534C162.068 45.3335 161.841 45.9459 161.387 46.3715C160.933 46.7905 160.28 47 159.43 47ZM159.43 46.4391C160.056 46.4391 160.536 46.2747 160.869 45.9459C161.208 45.6171 161.377 45.1466 161.377 44.534V42.4841C161.377 41.8716 161.208 41.4009 160.869 41.0722C160.536 40.7434 160.056 40.5791 159.43 40.5791C158.803 40.5791 158.32 40.7434 157.981 41.0722C157.648 41.4009 157.482 41.8716 157.482 42.4841V44.534C157.482 45.1466 157.648 45.6171 157.981 45.9459C158.32 46.2747 158.803 46.4391 159.43 46.4391Z" fill="white"/>
<path d="M166.296 46.8936C165.561 46.8936 165.014 46.7292 164.656 46.4004C164.304 46.0653 164.128 45.5559 164.128 44.8726V40.1245H164.819V44.8726C164.819 45.369 164.937 45.7364 165.174 45.975C165.417 46.2134 165.791 46.3328 166.296 46.3328H168.455V46.8936H166.296Z" fill="white"/>
<path d="M172.77 47C171.976 47 171.353 46.8292 170.899 46.4874C170.451 46.1394 170.227 45.6624 170.227 45.0563V40.1245H170.918V45.0563C170.918 45.4882 171.081 45.8267 171.407 46.0716C171.733 46.3166 172.188 46.4391 172.77 46.4391C173.352 46.4391 173.806 46.3166 174.132 46.0716C174.458 45.8267 174.621 45.4882 174.621 45.0563V40.1245H175.312V45.0563C175.312 45.6624 175.085 46.1394 174.631 46.4874C174.183 46.8292 173.563 47 172.77 47Z" fill="white"/>
<path d="M179.217 40.6853H177.039V40.1245H182.085V40.6853H179.908V46.8936H179.217V40.6853Z" fill="white"/>
<path d="M184.052 40.1245H184.743V46.8936H184.052V40.1245Z" fill="white"/>
<path d="M189.681 47C188.83 47 188.178 46.7905 187.724 46.3715C187.27 45.9459 187.043 45.3335 187.043 44.534V42.4841C187.043 41.6846 187.27 41.0754 187.724 40.6564C188.178 40.2308 188.83 40.0181 189.681 40.0181C190.532 40.0181 191.184 40.2308 191.639 40.6564C192.093 41.0754 192.32 41.6846 192.32 42.4841V44.534C192.32 45.3335 192.093 45.9459 191.639 46.3715C191.184 46.7905 190.532 47 189.681 47ZM189.681 46.4391C190.308 46.4391 190.788 46.2747 191.121 45.9459C191.46 45.6171 191.629 45.1466 191.629 44.534V42.4841C191.629 41.8716 191.46 41.4009 191.121 41.0722C190.788 40.7434 190.308 40.5791 189.681 40.5791C189.054 40.5791 188.572 40.7434 188.232 41.0722C187.9 41.4009 187.734 41.8716 187.734 42.4841V44.534C187.734 45.1466 187.9 45.6171 188.232 45.9459C188.572 46.2747 189.054 46.4391 189.681 46.4391Z" fill="white"/>
<path d="M199.791 40.1245V45.888C199.791 46.2296 199.721 46.4842 199.58 46.6519C199.439 46.813 199.222 46.8936 198.928 46.8936H198.438L195.282 41.1689V46.8936H194.62V40.1245H195.445L198.803 46.2844H198.87C198.966 46.2844 199.033 46.249 199.072 46.178C199.11 46.1072 199.129 45.9813 199.129 45.8008V40.1245H199.791Z" fill="white"/>
<path d="M204.289 47C203.701 47 203.215 46.913 202.831 46.7389C202.453 46.5584 202.105 46.2553 201.785 45.8299L202.255 45.4141C202.53 45.788 202.815 46.0523 203.109 46.2071C203.41 46.3618 203.79 46.4391 204.251 46.4391C204.852 46.4391 205.316 46.3231 205.642 46.091C205.975 45.8589 206.141 45.5333 206.141 45.1144C206.141 44.8499 206.08 44.6405 205.959 44.4857C205.837 44.331 205.623 44.1989 205.316 44.0892C205.009 43.9733 204.555 43.8539 203.953 43.7315C203.294 43.6025 202.805 43.3899 202.485 43.0932C202.172 42.7967 202.015 42.4001 202.015 41.9037C202.015 41.3171 202.223 40.8563 202.639 40.521C203.061 40.1857 203.64 40.0181 204.376 40.0181C204.9 40.0181 205.354 40.1116 205.738 40.2986C206.122 40.4791 206.419 40.7466 206.63 41.1012L206.16 41.4881C205.962 41.1914 205.709 40.9658 205.402 40.8112C205.102 40.6564 204.753 40.5791 204.356 40.5791C203.851 40.5791 203.448 40.695 203.147 40.9271C202.853 41.1592 202.706 41.4719 202.706 41.8651C202.706 42.2133 202.837 42.4904 203.099 42.6968C203.362 42.8967 203.794 43.0578 204.395 43.1802C205.028 43.3091 205.517 43.4542 205.863 43.6155C206.215 43.7766 206.464 43.9733 206.611 44.2054C206.758 44.431 206.832 44.7275 206.832 45.095C206.832 45.7138 206.614 46.1877 206.179 46.5165C205.744 46.8389 205.114 47 204.289 47Z" fill="white"/>
</svg>
