<svg width="904" height="276" viewBox="0 0 904 276" fill="none" xmlns="http://www.w3.org/2000/svg">
<path d="M119.399 128.506H42.8142L27.0914 180.212H3L47.8861 34.2174C50.5911 25.4307 53.3806 18.5873 56.2546 13.687C59.1287 8.7867 62.5099 5.32271 66.3984 3.29502C70.2868 1.09834 75.1051 0 80.8532 0C89.3063 0 95.9843 2.53462 100.887 7.60387C105.79 12.5042 110.186 21.3753 114.074 34.2174L159.214 180.212H134.869L119.399 128.506ZM113.82 110.003L90.997 34.4709C89.6445 29.9086 88.2074 26.7825 86.6859 25.0928C85.1643 23.2341 83.2201 22.3047 80.8532 22.3047C78.6554 22.3047 76.7957 23.2341 75.2742 25.0928C73.9217 26.7825 72.5692 29.9086 71.2167 34.4709L48.3932 110.003H113.82Z" fill="white"/>
<path d="M244.621 183C221.291 183 203.454 177.508 191.113 166.525C178.771 155.542 172.601 139.489 172.601 118.367V64.3795C172.601 43.0886 178.687 27.036 190.859 16.2216C203.201 5.4072 221.291 0 245.128 0C260.344 0 273.277 2.28116 283.928 6.84349C294.579 11.4058 303.37 18.3338 310.302 27.6274L292.55 41.0609C286.802 33.626 280.124 28.1343 272.516 24.5859C265.078 20.8684 255.864 19.0097 244.875 19.0097C212.753 19.0097 196.692 34.133 196.692 64.3795V118.367C196.692 148.783 212.753 163.99 244.875 163.99C258.907 163.99 269.896 161.371 277.842 156.133C285.957 150.895 290.014 143.629 290.014 134.335V120.902C290.014 114.143 288.239 108.989 284.689 105.44C281.308 101.892 276.236 100.118 269.473 100.118H239.549V81.108H275.56C288.408 81.108 297.96 84.1496 304.216 90.2327C310.471 96.3158 313.599 105.609 313.599 118.114V135.856C313.599 150.388 307.343 161.878 294.833 170.327C282.491 178.776 265.754 183 244.621 183Z" fill="white"/>
<path d="M349.601 2.78808H373.692V180.212H349.601V2.78808Z" fill="white"/>
<path d="M472.168 180.212C452.049 180.212 437.256 175.734 427.789 166.778C418.491 157.823 413.841 144.389 413.841 126.478V2.78808H437.933V126.478C437.933 138.306 440.722 147.093 446.301 152.838C451.88 158.414 460.503 161.202 472.168 161.202H529.226V180.212H472.168Z" fill="white"/>
<path d="M560.351 2.78808H584.442V180.212H560.351V2.78808Z" fill="white"/>
<path d="M670.492 21.7978H614.448V2.78808H750.881V21.7978H694.583V180.212H670.492V21.7978Z" fill="white"/>
<path d="M819.3 105.44L759.452 2.78808H786.079L831.979 83.1357L877.119 2.78808H904L843.391 105.44V180.212H819.3V105.44Z" fill="white"/>
<path d="M16.2062 276C10.9182 276 6.88571 274.77 4.1086 272.309C1.36953 269.848 0 266.252 0 261.519V249.424C0 244.767 1.33149 241.209 3.99447 238.748C6.6955 236.249 10.5758 235 15.6355 235C18.9452 235 21.7794 235.53 24.138 236.59C26.4967 237.612 28.4369 239.221 29.9586 241.417L27.0483 243.518C25.7168 241.739 24.138 240.433 22.312 239.6C20.524 238.729 18.3556 238.294 15.8067 238.294C12.0024 238.294 9.09219 239.24 7.07593 241.133C5.09771 243.026 4.1086 245.789 4.1086 249.424V261.519C4.1086 265.192 5.11673 267.974 7.13299 269.867C9.18729 271.76 12.1927 272.706 16.1491 272.706C18.774 272.706 20.9995 272.271 22.8256 271.4C24.6516 270.53 26.2304 269.167 27.5619 267.312L30.4721 269.526C28.7602 271.798 26.782 273.445 24.5375 274.467C22.293 275.489 19.5159 276 16.2062 276Z" fill="white"/>
<path d="M72.3477 275.375H67.9538L65.2147 265.154C64.6821 263.185 64.0734 261.652 63.3887 260.554C62.7039 259.456 61.7528 258.661 60.5355 258.169C59.3561 257.639 57.7393 257.374 55.685 257.374H46.4407V275.375H42.3321V235.625H59.4512C63.1794 235.625 66.0136 236.552 67.9538 238.407C69.932 240.262 70.9211 242.874 70.9211 246.244C70.9211 249.083 70.2363 251.355 68.8668 253.058C67.5353 254.724 65.6332 255.765 63.1604 256.181C64.8343 256.787 66.1277 257.79 67.0407 259.191C67.9918 260.592 68.8288 262.579 69.5516 265.154L72.3477 275.375ZM58.9947 254.08C61.4675 254.08 63.3887 253.418 64.7582 252.093C66.1277 250.768 66.8125 248.913 66.8125 246.528C66.8125 244.105 66.1277 242.231 64.7582 240.906C63.3887 239.581 61.4675 238.918 58.9947 238.918H46.4407V254.08H58.9947Z" fill="white"/>
<path d="M96.0899 275.375C91.6389 275.375 88.3292 274.41 86.1607 272.479C84.0303 270.511 82.9651 267.52 82.9651 263.507V247.493C82.9651 243.48 84.0303 240.508 86.1607 238.578C88.3292 236.609 91.6389 235.625 96.0899 235.625H109.842V238.918H96.0899C93.0084 238.918 90.7258 239.619 89.2422 241.019C87.7966 242.42 87.0738 244.578 87.0738 247.493V253.853H106.932V257.147H87.0738V263.507C87.0738 266.422 87.7966 268.58 89.2422 269.981C90.7258 271.381 93.0084 272.082 96.0899 272.082H110.185V275.375H96.0899Z" fill="white"/>
<path d="M145.106 262.598H127.073L123.136 275.375H119.027L129.356 242.155C130.193 239.467 131.087 237.612 132.038 236.59C133.027 235.53 134.377 235 136.089 235C137.801 235 139.152 235.53 140.141 236.59C141.13 237.612 142.043 239.467 142.88 242.155L153.209 275.375H149.043L145.106 262.598ZM144.135 259.418L138.828 242.212C138.41 240.925 138.011 240.035 137.63 239.543C137.25 239.051 136.736 238.805 136.089 238.805C135.481 238.805 134.986 239.051 134.606 239.543C134.225 240.035 133.826 240.925 133.407 242.212L128.1 259.418H144.135Z" fill="white"/>
<path d="M168.477 238.918H155.524V235.625H185.539V238.918H172.586V275.375H168.477V238.918Z" fill="white"/>
<path d="M197.234 235.625H201.342V275.375H197.234V235.625Z" fill="white"/>
<path d="M229.573 276C227.937 276 226.606 275.451 225.579 274.353C224.589 273.255 223.714 271.419 222.954 268.845L213.025 235.625H217.133L227.005 268.788C227.348 270 227.709 270.87 228.089 271.4C228.508 271.93 229.002 272.195 229.573 272.195C230.106 272.195 230.562 271.949 230.943 271.457C231.323 270.927 231.703 270.037 232.084 268.788L241.956 235.625H246.122L236.192 268.845C235.432 271.381 234.538 273.217 233.51 274.353C232.483 275.451 231.171 276 229.573 276Z" fill="white"/>
<path d="M267.984 275.375C263.533 275.375 260.223 274.41 258.055 272.479C255.924 270.511 254.859 267.52 254.859 263.507V247.493C254.859 243.48 255.924 240.508 258.055 238.578C260.223 236.609 263.533 235.625 267.984 235.625H281.736V238.918H267.984C264.902 238.918 262.62 239.619 261.136 241.019C259.69 242.42 258.968 244.578 258.968 247.493V253.853H278.826V257.147H258.968V263.507C258.968 266.422 259.69 268.58 261.136 269.981C262.62 271.381 264.902 272.082 267.984 272.082H282.079V275.375H267.984Z" fill="white"/>
<path d="M313.35 235.625H327.559C331.744 235.625 335.053 236.268 337.488 237.555C339.961 238.843 341.749 240.925 342.852 243.802C343.955 246.679 344.507 250.578 344.507 255.5C344.507 260.459 343.955 264.378 342.852 267.255C341.787 270.094 340.018 272.157 337.545 273.445C335.11 274.732 331.782 275.375 327.559 275.375H313.35V235.625ZM327.559 272.082C330.716 272.082 333.227 271.552 335.091 270.492C336.955 269.394 338.306 267.652 339.143 265.267C339.98 262.844 340.398 259.608 340.398 255.557C340.398 251.506 339.961 248.269 339.086 245.846C338.249 243.423 336.898 241.663 335.034 240.565C333.17 239.467 330.678 238.918 327.559 238.918H317.459V272.082H327.559Z" fill="white"/>
<path d="M357.927 235.625H362.035V275.375H357.927V235.625Z" fill="white"/>
<path d="M391.693 276C386.481 276 382.505 274.77 379.766 272.309C377.065 269.81 375.715 266.214 375.715 261.519V249.424C375.715 244.692 377.065 241.114 379.766 238.691C382.505 236.23 386.519 235 391.807 235C398.16 235 402.915 236.874 406.073 240.622L403.105 243.007C400.442 239.865 396.657 238.294 391.75 238.294C387.793 238.294 384.807 239.24 382.791 241.133C380.812 242.988 379.823 245.752 379.823 249.424V261.519C379.823 265.229 380.831 268.031 382.848 269.924C384.864 271.779 387.831 272.706 391.75 272.706C395.173 272.706 397.894 272.044 399.91 270.719C401.926 269.394 402.934 267.615 402.934 265.381V261.747C402.934 260.043 402.478 258.756 401.565 257.885C400.652 256.976 399.339 256.522 397.627 256.522H390.78V253.229H398.483C404.113 253.229 406.929 255.935 406.929 261.349V265.608C406.929 267.728 406.301 269.564 405.046 271.116C403.828 272.669 402.059 273.88 399.739 274.751C397.456 275.584 394.774 276 391.693 276Z" fill="white"/>
<path d="M419.941 235.625H424.05V275.375H419.941V235.625Z" fill="white"/>
<path d="M448.686 238.918H435.732V235.625H465.748V238.918H452.794V275.375H448.686V238.918Z" fill="white"/>
<path d="M494.127 262.598H476.095L472.158 275.375H468.049L478.378 242.155C479.215 239.467 480.108 237.612 481.06 236.59C482.049 235.53 483.399 235 485.111 235C486.823 235 488.174 235.53 489.163 236.59C490.152 237.612 491.065 239.467 491.902 242.155L502.23 275.375H498.065L494.127 262.598ZM493.157 259.418L487.85 242.212C487.432 240.925 487.032 240.035 486.652 239.543C486.271 239.051 485.758 238.805 485.111 238.805C484.502 238.805 484.008 239.051 483.627 239.543C483.247 240.035 482.848 240.925 482.429 242.212L477.122 259.418H493.157Z" fill="white"/>
<path d="M524.294 275.375C519.919 275.375 516.666 274.41 514.536 272.479C512.444 270.511 511.397 267.52 511.397 263.507V235.625H515.506V263.507C515.506 266.422 516.21 268.58 517.617 269.981C519.063 271.381 521.289 272.082 524.294 272.082H537.133V275.375H524.294Z" fill="white"/>
<path d="M579.858 276C576.358 276 573.467 275.489 571.184 274.467C568.939 273.407 566.866 271.627 564.964 269.129L567.76 266.687C569.396 268.883 571.089 270.435 572.839 271.344C574.627 272.252 576.89 272.706 579.629 272.706C583.205 272.706 585.964 272.025 587.904 270.662C589.882 269.299 590.871 267.387 590.871 264.927C590.871 263.374 590.51 262.144 589.787 261.235C589.064 260.327 587.79 259.551 585.964 258.907C584.138 258.226 581.436 257.525 577.86 256.806C573.942 256.049 571.032 254.8 569.13 253.058C567.266 251.317 566.334 248.988 566.334 246.073C566.334 242.628 567.57 239.922 570.043 237.953C572.554 235.984 575.996 235 580.371 235C583.491 235 586.192 235.549 588.474 236.647C590.757 237.707 592.526 239.278 593.781 241.36L590.985 243.632C589.806 241.89 588.303 240.565 586.477 239.657C584.689 238.748 582.616 238.294 580.257 238.294C577.252 238.294 574.855 238.975 573.067 240.338C571.317 241.701 570.442 243.537 570.442 245.846C570.442 247.891 571.222 249.518 572.782 250.73C574.341 251.904 576.909 252.85 580.485 253.569C584.252 254.326 587.162 255.178 589.216 256.125C591.308 257.071 592.792 258.226 593.667 259.589C594.542 260.914 594.98 262.655 594.98 264.813C594.98 268.447 593.686 271.23 591.099 273.161C588.512 275.054 584.765 276 579.858 276Z" fill="white"/>
<path d="M621.081 276C616.021 276 612.141 274.77 609.44 272.309C606.738 269.81 605.388 266.214 605.388 261.519V249.481C605.388 244.786 606.738 241.209 609.44 238.748C612.141 236.249 616.021 235 621.081 235C626.14 235 630.021 236.249 632.722 238.748C635.423 241.209 636.773 244.786 636.773 249.481V261.519C636.773 266.214 635.423 269.81 632.722 272.309C630.021 274.77 626.14 276 621.081 276ZM621.081 272.706C624.809 272.706 627.662 271.741 629.64 269.81C631.656 267.879 632.665 265.116 632.665 261.519V249.481C632.665 245.884 631.656 243.12 629.64 241.19C627.662 239.259 624.809 238.294 621.081 238.294C617.352 238.294 614.48 239.259 612.464 241.19C610.486 243.12 609.497 245.884 609.497 249.481V261.519C609.497 265.116 610.486 267.879 612.464 269.81C614.48 271.741 617.352 272.706 621.081 272.706Z" fill="white"/>
<path d="M661.921 275.375C657.546 275.375 654.293 274.41 652.163 272.479C650.07 270.511 649.024 267.52 649.024 263.507V235.625H653.133V263.507C653.133 266.422 653.836 268.58 655.244 269.981C656.69 271.381 658.915 272.082 661.921 272.082H674.76V275.375H661.921Z" fill="white"/>
<path d="M700.419 276C695.702 276 691.993 274.997 689.292 272.99C686.629 270.946 685.298 268.145 685.298 264.586V235.625H689.406V264.586C689.406 267.122 690.376 269.11 692.316 270.548C694.257 271.987 696.958 272.706 700.419 272.706C703.881 272.706 706.582 271.987 708.523 270.548C710.463 269.11 711.433 267.122 711.433 264.586V235.625H715.541V264.586C715.541 268.145 714.191 270.946 711.49 272.99C708.827 274.997 705.137 276 700.419 276Z" fill="white"/>
<path d="M738.762 238.918H725.808V235.625H755.824V238.918H742.871V275.375H738.762V238.918Z" fill="white"/>
<path d="M767.519 235.625H771.627V275.375H767.519V235.625Z" fill="white"/>
<path d="M800.999 276C795.939 276 792.059 274.77 789.358 272.309C786.657 269.81 785.307 266.214 785.307 261.519V249.481C785.307 244.786 786.657 241.209 789.358 238.748C792.059 236.249 795.939 235 800.999 235C806.059 235 809.939 236.249 812.64 238.748C815.341 241.209 816.692 244.786 816.692 249.481V261.519C816.692 266.214 815.341 269.81 812.64 272.309C809.939 274.77 806.059 276 800.999 276ZM800.999 272.706C804.727 272.706 807.58 271.741 809.559 269.81C811.575 267.879 812.583 265.116 812.583 261.519V249.481C812.583 245.884 811.575 243.12 809.559 241.19C807.58 239.259 804.727 238.294 800.999 238.294C797.271 238.294 794.399 239.259 792.382 241.19C790.404 243.12 789.415 245.884 789.415 249.481V261.519C789.415 265.116 790.404 267.879 792.382 269.81C794.399 271.741 797.271 272.706 800.999 272.706Z" fill="white"/>
<path d="M861.127 235.625V269.47C861.127 271.476 860.708 272.971 859.871 273.956C859.034 274.902 857.741 275.375 855.991 275.375H853.081L834.307 241.758V275.375H830.369V235.625H835.277L855.249 271.798H855.648C856.219 271.798 856.619 271.59 856.847 271.173C857.075 270.757 857.189 270.018 857.189 268.958V235.625H861.127Z" fill="white"/>
<path d="M887.878 276C884.378 276 881.487 275.489 879.204 274.467C876.96 273.407 874.887 271.627 872.984 269.129L875.781 266.687C877.416 268.883 879.109 270.435 880.859 271.344C882.647 272.252 884.911 272.706 887.65 272.706C891.226 272.706 893.984 272.025 895.924 270.662C897.902 269.299 898.891 267.387 898.891 264.927C898.891 263.374 898.53 262.144 897.807 261.235C897.084 260.327 895.81 259.551 893.984 258.907C892.158 258.226 889.457 257.525 885.881 256.806C881.962 256.049 879.052 254.8 877.15 253.058C875.286 251.317 874.354 248.988 874.354 246.073C874.354 242.628 875.59 239.922 878.063 237.953C880.574 235.984 884.017 235 888.392 235C891.511 235 894.212 235.549 896.495 236.647C898.777 237.707 900.546 239.278 901.802 241.36L899.005 243.632C897.826 241.89 896.323 240.565 894.497 239.657C892.709 238.748 890.636 238.294 888.277 238.294C885.272 238.294 882.875 238.975 881.087 240.338C879.338 241.701 878.463 243.537 878.463 245.846C878.463 247.891 879.242 249.518 880.802 250.73C882.362 251.904 884.93 252.85 888.506 253.569C892.272 254.326 895.182 255.178 897.237 256.125C899.329 257.071 900.813 258.226 901.688 259.589C902.562 260.914 903 262.655 903 264.813C903 268.447 901.707 271.23 899.12 273.161C896.533 275.054 892.786 276 887.878 276Z" fill="white"/>
</svg>
