<svg width="560" height="591" viewBox="0 0 560 591" fill="none" xmlns="http://www.w3.org/2000/svg">
<path d="M279.193 231.288C287.692 231.288 294.582 224.393 294.582 215.889C294.582 207.384 287.692 200.49 279.193 200.49C270.693 200.49 263.803 207.384 263.803 215.889C263.803 224.393 270.693 231.288 279.193 231.288Z" fill="white"/>
<path fill-rule="evenodd" clip-rule="evenodd" d="M300.081 215.354C300.081 203.768 290.695 194.377 279.116 194.377C267.538 194.377 258.152 203.768 258.152 215.354C258.152 226.94 267.538 236.331 279.116 236.332C290.695 236.331 300.081 226.94 300.081 215.354ZM298.376 215.354C298.376 220.679 296.222 225.491 292.735 228.981C289.248 232.47 284.438 234.625 279.116 234.626C273.796 234.625 268.986 232.47 265.498 228.981C262.012 225.491 259.858 220.679 259.857 215.354C259.858 210.03 262.012 205.218 265.498 201.728C268.986 198.238 273.796 196.083 279.116 196.083C284.438 196.083 289.248 198.238 292.735 201.728C296.221 205.218 298.376 210.03 298.376 215.354Z" fill="white"/>
<path fill-rule="evenodd" clip-rule="evenodd" d="M223.346 36.4688C235.71 13.9752 259.331 0 284.987 0C311.161 0 335.172 14.5404 347.311 37.7433L544.69 414.988C579.25 481.043 552.187 556.899 494.683 591C481.25 572.237 459.501 560.044 434.95 560.044C424.248 560.044 414.089 562.379 404.907 566.546C400.172 547.181 383.028 532.812 362.544 532.812L362.495 532.815C362.467 532.01 362.411 531.214 362.315 530.43C362.459 529.315 362.544 528.179 362.544 527.025C362.544 512.193 350.736 500.171 336.172 500.171C332.839 500.171 329.665 500.827 326.729 501.975C325.227 491.718 318.06 483.346 308.547 480.324L295.66 445.692H295.624L284.813 390.654H280.18L275.161 445.692L274.774 445.692L262.116 479.707C260.485 479.325 258.795 479.107 257.052 479.107C244.548 479.107 234.412 489.427 234.412 502.158C234.412 503.303 234.525 504.416 234.688 505.513L234.649 505.762L234.628 505.893C234.608 506.016 234.59 506.138 234.575 506.262C230.93 504.886 227.004 504.096 222.888 504.096C204.294 504.096 189.221 519.421 189.176 538.342C188.014 538.146 186.83 538.02 185.613 538.02C176.906 538.02 169.421 543.27 165.99 550.819C154.334 542.994 140.383 538.427 125.376 538.427C94.3407 538.427 67.7729 557.909 56.8257 585.517C4.48919 548.725 -18.046 475.631 16.6086 412.584L223.346 36.4688ZM275.639 326.631H264.664C264.664 326.631 254.406 337.385 255.818 353.211C255.818 353.211 258.718 349.927 261.022 348.223C261.441 347.912 262.019 348.268 261.939 348.783C261.384 352.358 261.86 363.082 280.305 381.301C298.75 363.082 299.224 352.358 298.671 348.783C298.591 348.268 299.169 347.912 299.587 348.223C301.891 349.927 304.793 353.211 304.793 353.211C306.204 337.385 295.946 326.631 295.946 326.631H284.972C285.168 325.837 285.36 325.014 285.546 324.162H295.194C297.616 324.162 299.837 322.812 300.952 320.659L302.665 317.352C304.392 316.63 305.849 315.319 306.741 313.597L308.285 310.617C310.586 310.151 312.448 308.353 312.929 305.978C314.335 299.034 316.774 284.968 317.759 266.969C319.217 240.355 317.498 205.141 304.566 171.637L303.916 169.963C298.244 155.709 290.513 141.796 280.096 129.023L280.088 129.08L280.08 129.023C269.769 141.664 262.096 155.422 256.44 169.522L255.607 171.639C235.786 222.993 242.31 278.363 246.237 300.626C246.605 302.71 246.949 304.504 247.248 305.978C247.732 308.365 249.608 310.168 251.925 310.624L253.465 313.597C254.357 315.32 255.816 316.632 257.544 317.353L259.256 320.659C260.371 322.812 262.593 324.162 265.015 324.162H275.065C275.25 325.014 275.443 325.837 275.639 326.631ZM357.372 330.388C359.594 295.264 335.352 276.609 321.221 268.783C320.408 282.124 318.819 293.177 317.514 300.583C337.29 309.915 357.372 330.388 357.372 330.388ZM202.344 332.174C200.144 297.397 223.889 278.765 238.074 270.804C238.899 284.155 240.497 295.197 241.8 302.56C241.951 302.488 242.101 302.417 242.251 302.347C222.46 311.667 202.344 332.174 202.344 332.174Z" fill="white"/>
</svg>
